<?xml version="1.0" encoding="UTF-8"?>
<svg id="_Слой_1" data-name="Слой_1" xmlns="http://www.w3.org/2000/svg" viewBox="0 0 466.21 163.03">
  <defs>
    <style>
      .cls-1 {
        fill: #ced3dd;
      }

      .cls-2 {
        fill: none;
      }

      .cls-3 {
        fill: #9397a3;
      }
    </style>
  </defs>
  <g>
    <path class="cls-3" d="M455.48,116.66v-2.42h1.47l9.26-15.93-5.71-10.08h-.08v-14.34c1.5-1.86,2.39-4.27,2.39-6.89l.09-5.25c0-4.87-3.09-8.98-7.31-10.27-.9-.27-1.85-.42-2.83-.42-2.8,0-5.34,1.19-7.17,3.13-1.27,1.34-2.21,3.04-2.66,4.94-.21.84-.31,1.71-.31,2.62l-.03,1.62v.25s-.06,3.38-.06,3.38c0,2.72.97,5.21,2.56,7.1v14.13h-.12l-5.72,10.08,9.21,15.93h1.47v3s7.76,3.47,7.99,11.05c.03,1.25-.14,6.69-7.93,6.02-3.26-.28-6.07-2.15-7.34-5.25.34,6.23,4.91,11.17,10.49,11.17s10.52-5.35,10.52-11.94c0-5.68-3.5-10.44-8.18-11.63ZM450.23,84.24v3.99h-3.87v-12.87c1.72,1.45,3.92,2.32,6.31,2.32s4.73-.93,6.49-2.48v13.03h-4.33v-3.99h-4.6Z"/>
    <path class="cls-3" d="M435.41,17.8c0,.37.02.76.08,1.14l1.84,12.69,1.96,13.55h0s1.73,11.93,1.73,11.93c.47-1.98,1.45-3.74,2.77-5.13,1.9-2.01,4.54-3.25,7.45-3.25,1.02,0,2.01.15,2.94.44l-4.7-32.44c-.59-4.08-4.21-6.88-8.08-6.26-3.33.53-5.75,3.43-5.97,6.82-.01.17-.02.34-.02.51Z"/>
    <line class="cls-2" x1="439.25" y1="45.19" x2="439.29" y2="45.19"/>
    <polygon class="cls-3" points="252.58 70.02 252.58 77.25 417.87 35.15 434.45 30.93 432.29 16.92 431.62 12.58 415.61 17.08 416.18 21.68 252.58 70.02"/>
    <polygon class="cls-3" points="253.12 79.12 253.12 87.29 268.52 83.9 283.63 76.51 301.23 72.62 301.23 70.09 332.95 61.45 348.74 66.2 353.89 65.12 361.6 63.42 387.25 57.78 419.4 50.71 420.28 50.52 437.33 46.77 435.28 33.75 418.67 37.88 253.12 79.12"/>
    <polygon class="cls-3" points="420.69 52.69 420.79 53.51 421.1 55.98 423.82 55.4 438.45 52.32 437.91 48.79 420.69 52.69"/>
    <path class="cls-3" d="M231.99,61.52c-4.8,0-8.7,4.1-8.7,9.16v23.85h29.84v-33.01h-21.14ZM235.35,83.59l-9.88-5.83v-8.96l9.88-4.16v18.95ZM240.88,83.59v-18.95h10.07l.33,10.39.27,8.56h-10.67Z"/>
    <path class="cls-3" d="M214.2,83.9v10.62h9.09v-15.41c-.89-.84-2.01-1.35-3.23-1.35h-.7c-2.84,0-5.15,2.75-5.15,6.14Z"/>
    <rect class="cls-3" x="205.11" y="88.58" width="13.36" height="5.94"/>
    <path class="cls-3" d="M373.73,72.87l-6.4-2.06-14.22-4.57-1.78-.57h-.02s-3.37-1.09-3.37-1.09h-.01l-13.26-4.26-1.59-.51-.5-.16.06.3.28,1.51h0s1.18,6.37,1.18,6.37l4.27,23.15.46,19.37.14,5.89v.54s1.06,0,1.06,0l41.31-.12v-15.49l-7.61-28.29ZM375.26,111.08l-12.14-.73-12.98-.78v-10.6l25.12,3.26v8.85ZM341.6,93.9l-5.07-26.64-.44-2.31,4.36,1.38h.01l10.37,3.3,7.6,2.41,12.45,3.95,6.09,23.53-35.37-5.62Z"/>
    <path class="cls-3" d="M340.02,116.24l-.12-5.89-.4-19.56-3.69-23.24-.87-5.49h0s-.27-1.74-.27-1.74l-.16-.98-1.43.47-.44.14-28.88,9.45h-.02s-.16.06-.16.06h-.03v44.31l.21.47,1.18,2.64,18.99-.06h2.88c1.32-1.52,2.92-2.41,4.65-2.41,1.5,0,2.9.66,4.1,1.83.18.17.36.36.52.55h1.47s1.43-.01,1.43-.01h1.05s0-.54,0-.54ZM313.4,87.45l-3.17-12.91-.93-3.82,22.98-6.06.66,3.67,4.6,25.59-24.14-6.47Z"/>
    <polygon class="cls-3" points="256.97 92.82 256.97 100.11 301.11 99.41 301.11 76.1 284.96 79.56 271.1 86.13 256.97 92.82"/>
    <polygon class="cls-3" points="202.54 96.72 202.54 100.11 209.01 100.05 214.59 100 217.57 99.97 217.58 99.97 221.11 99.94 252.61 99.66 253.12 99.66 253.12 96.72 202.54 96.72"/>
    <polygon class="cls-3" points="201.36 102.34 201.36 106.04 301.73 106.04 301.73 101.49 253.12 101.9 252.61 101.9 221.11 102.17 217.58 102.2 217.57 102.2 214.59 102.23 214.59 102.27 209.01 102.27 202.54 102.33 201.36 102.34"/>
    <path class="cls-3" d="M337.55,116.78h-1.47s-9.27.03-9.27.03h-2.88c1.72-2.39,4.14-3.89,6.82-3.89s5.09,1.47,6.8,3.86Z"/>
    <path class="cls-2" d="M242.26,117.56h-.01M242.26,117.07h-.01"/>
    <polygon class="cls-3" points="301.73 108.37 301.73 116.89 301.12 116.89 288.48 116.93 279.01 116.96 242.26 117.07 242.25 117.07 238.91 117.08 226.44 117.12 221.99 117.13 209.2 117.17 209.19 117.17 201.36 117.2 201.36 108.37 301.73 108.37"/>
  </g>
  <g>
    <polygon class="cls-3" points="28.19 126.69 25.39 126.66 28.02 136.13 21.55 126.73 18.82 126.66 22.04 135.6 15.95 126.73 13.23 126.66 16.17 135.6 8.76 126.73 5.95 113.1 5.74 112.49 25.84 112.49 34.05 136.19 34.06 136.87 28.19 126.69"/>
    <path class="cls-3" d="M39.46,110.83c-1.76,2.12-2.7,4.8-2.67,7.57l.22,17.42-8.21-23.7,24.01-31.82,8.26,4.09-21.62,26.45Z"/>
    <path class="cls-3" d="M25.34,110.76H5.23l-1.38-3.88-1.46-4.09-.62-1.75c-.28-.79-.54-1.6-.74-2.41-.75-2.83-1.1-5.75-1.01-8.67,0-.26.03-.52.03-.78.07-1.29.3-2.56.68-3.77.26-.85.59-1.67.99-2.47.27-.52.57-1.03.9-1.52.86-1.31,1.92-2.48,3.16-3.49.89-.73,1.91-1.28,3-1.64l7.17-2.35c2.56-.79,5-1.32,7.38-1.62-1.68,1.53-2.93,2.96-3.96,6.61-3.78,13.18,5.12,30.76,5.97,31.83Z"/>
    <path class="cls-3" d="M151.51,95.94h.01v-.02.02Z"/>
    <path class="cls-3" d="M187.65,111.44v-2.78l-36.7-1.05h-16.83v-11.66h16.15l-.04.03,42.38,3.02-4.05-12.95-11.2-2.07,2.03,9.08h-8.04l-1.76-10.51-1.81-.34-.02-.27-1.53-17.64-14.84-5.67h-.02s-19.01.93-19.01.93l-.04,1.49v.12l-16.74-21.28c-.99-1.27-2.12-2.4-3.38-3.39-.4-.4-.82-.76-1.28-1.09l-31.49-22.82-.98,2.1-1.09,2.38,1.79,1.42.03.02,13.52,9.2-20.91-8.26-10.38-4.83c-.1-.05-.2-.09-.31-.12-1.45-.44-2.98.65-2.98,2.23v4.77c0,.92.33,1.79.89,2.47.33.41.75.76,1.23,1l1.05.55,4.54,2.34-.27,2.94,35.2,16.03c4.2,1.91,7.86,4.86,10.62,8.58l20.56,26.76-.04,1.68-23.28-28.08c-2.82-3.67-6.52-6.56-10.75-8.41l-35.45-15.47-2.21-.9-.07-3.95-1.32-.68c-.61-.32-1.13-.75-1.55-1.26-.7-.87-1.11-1.96-1.11-3.12v-6c0-1.99,1.9-3.57,3.74-3.03v-.33l-.09-4.93h-22.92l2.67,64.99c-2.82-.78-5.61-1.21-8.46-1.3-1.79-.04-3.6.04-5.44.28-1.68,1.54-2.93,2.96-3.96,6.62-3.79,13.17,5.11,30.75,5.97,31.82l24.01-31.89c1.11.39,2.19.86,3.25,1.38l6.15,3.04-.74-44.08,32.12,14.89c5.76,2.66,10.78,6.68,14.65,11.69l18.59,21.93h-22.89v12.95h15.26v7.54l-23.15-.22c-2.76-.03-5.24,1.14-6.96,3.02-1.46,1.57-2.38,3.64-2.49,5.93,0,.19,0,.4,0,.6v.67s9.89-.03,9.89-.03l22.35-.07,22.38-.07,47.05-.14,4.66-.02v-1.51c-.93-1.81-2.38-3.29-4.14-4.27ZM153.94,61.05l9.99,4.59,1.75,16.73-11.74,8.5v-29.82ZM151.51,95.94v-.02s.01.02.01.02h0s0,.01,0,.01h-.02.01s-.01-.01-.01-.01ZM134.12,61.05h15.65v32.52h-15.65v-32.52Z"/>
    <polygon class="cls-3" points="78.17 12.05 77.07 14.32 61.84 2.96 61.93 .36 61.96 .33 78.17 12.05"/>
    <polygon class="cls-3" points="151.38 58.61 151.38 58.62 151.37 58.61 151.38 58.61"/>
    <polygon class="cls-3" points="151.52 95.92 151.52 95.94 151.51 95.94 151.52 95.92"/>
    <polygon class="cls-3" points="151.52 95.92 151.52 95.94 151.51 95.94 151.52 95.92"/>
    <polygon class="cls-3" points="192.91 100.82 192.91 106.89 187.81 106.75 153.1 105.69 136.37 105.69 136.37 97.8 152.84 97.8 192.91 100.82"/>
    <polygon class="cls-3" points="177.4 91.36 172.24 91.36 171.1 83.17 176.1 84.29 177.4 91.36"/>
    <rect class="cls-3" x="35.02" width="25.55" height="5.32"/>
  </g>
  <g>
    <path class="cls-1" d="M67.2,120.3v5.93h10.41v29.15h7.08v-29.15h10.38v-5.93h-27.87Z"/>
    <path class="cls-1" d="M126.49,130.56c-.07-2.55-.75-4.65-2.01-6.3-1.36-1.76-3.04-2.91-5.05-3.43-1.31-.35-4.12-.53-8.42-.53h-11.37v35.08h7.08v-13.24h4.62c3.21,0,5.66-.16,7.35-.5,1.24-.27,2.47-.82,3.67-1.66.72-.5,1.37-1.12,1.94-1.85.38-.49.73-1.02,1.04-1.61.6-1.12.96-2.45,1.11-3.97.04-.47.06-.95.06-1.46,0-.18,0-.36-.02-.53ZM118.41,133.91c-.53.79-1.27,1.36-2.21,1.73-.94.36-2.81.55-5.6.55h-3.88v-9.96h3.43c2.55,0,4.25.08,5.09.24,1.15.21,2.1.73,2.85,1.56.62.69.98,1.53,1.08,2.53.03.2.04.41.04.63,0,.9-.2,1.7-.6,2.41-.07.11-.13.21-.2.31Z"/>
    <path class="cls-1" d="M155.35,144.63l-2.04-5.07-5.89-14.73-1.82-4.53h-7.48l-8.81,22.6-4.86,12.48h7.52l2.89-7.97h14.02l3.06,7.97h7.71l-4.3-10.75ZM139.05,135.98l2.73-7.5,4.41,11.88.42,1.14h-9.57l2.01-5.52Z"/>
    <path class="cls-1" d="M184.39,120.3v13.81h-13.88v-13.81h-7.08v35.08h7.08v-15.34h13.88v15.34h7.08v-35.08h-7.08Z"/>
    <path class="cls-1" d="M221.23,142.48c-.59,2.57-1.56,4.45-2.92,5.65-1.35,1.19-2.97,1.79-4.85,1.79-2.55,0-4.63-.94-6.22-2.82-1.6-1.89-2.4-5.04-2.4-9.48,0-1.7.13-3.2.41-4.52.38-1.92,1.06-3.44,2.02-4.55.83-.95,1.79-1.66,2.88-2.12.81-.36,1.7-.57,2.66-.64.26-.02.52-.03.79-.03,1.88,0,3.48.52,4.8,1.57.2.16.4.34.58.52.99.99,1.66,2.25,2.01,3.79l1.78-.42,2.54-.61,2.6-.62.09-.02c-.02-.06-.03-.11-.05-.16-.39-1.38-.89-2.59-1.49-3.64-.58-1.04-1.27-1.93-2.04-2.66-2.68-2.54-6.17-3.81-10.46-3.81-4.91,0-8.88,1.62-11.89,4.85-.37.39-.71.8-1.03,1.23-2.33,3.12-3.49,7.24-3.49,12.37,0,5.52,1.5,9.87,4.49,13.05,3,3.18,6.83,4.77,11.49,4.77,3.76,0,6.87-.93,9.32-2.78,2.45-1.86,4.2-4.71,5.25-8.53l-6.87-2.18Z"/>
    <path class="cls-1" d="M233.36,139.3v6.72h13.21v-6.72h-13.21Z"/>
    <path class="cls-1" d="M253.01,120.3v20.03l.02,6.03c0,1.56-.25,2.54-.76,2.94-.52.4-1.51.6-3,.6l-1.57-.03v5.48c2.18.16,3.69.24,4.52.24,2.36,0,4.09-.47,5.2-1.42,1.11-.95,1.81-2.28,2.09-3.97.29-1.7.44-4.7.44-8.99v-14.98h10.55v29.15h7.08v-35.08h-24.57Z"/>
    <path class="cls-1" d="M305.81,120.3l-2.37,3.89-3.44,5.66-8.4,13.8v-23.35h-6.63v35.08h7.08l2.25-3.62,9.2-14.86,2.74-4.42v22.9h6.63v-35.08h-7.06Z"/>
    <path class="cls-1" d="M347.15,149.49v-29.19h-24.23v3.71c0,1.35-.01,2.64-.03,3.88-.05,2.43-.14,4.66-.27,6.69-.1,1.62-.24,3.1-.4,4.47-.09.75-.19,1.48-.32,2.19h0c-.52,3.08-1.37,5.82-2.55,8.25h-2.96v13.54h5.88v-7.65h22.09v7.65h5.88v-13.54h-3.09ZM340.1,149.49h-13.33c.22-.55.42-1.14.61-1.76,1.52-4.91,2.28-12.09,2.28-21.54h10.44v23.3Z"/>
    <path class="cls-1" d="M362.08,149.47v-9.55h17.61v-5.91h-17.61v-7.78h18.93v-5.93h-26.01v35.08h26.68v-5.91h-19.6Z"/>
    <path class="cls-1" d="M412.52,124.26c-1.36-1.76-3.04-2.91-5.05-3.43-1.31-.35-4.11-.53-8.42-.53h-11.37v35.08h7.09v-13.24h4.61c3.21,0,5.66-.16,7.35-.5,1.24-.27,2.47-.82,3.67-1.66,1.21-.84,2.2-1.99,2.98-3.46.78-1.47,1.17-3.28,1.17-5.43,0-2.79-.67-5.07-2.03-6.83ZM406.46,133.91c-.54.79-1.28,1.36-2.22,1.73-.94.36-2.81.55-5.6.55h-3.87v-9.96h3.42c2.55,0,4.25.08,5.09.24,1.15.21,2.1.73,2.85,1.56.75.83,1.13,1.88,1.13,3.16,0,1.03-.27,1.94-.8,2.72Z"/>
  </g>
  <polyline class="cls-2" points="304.94 116.88 323.93 116.82 326.81 116.81 336.08 116.79 337.55 116.78 337.56 116.78 338.98 116.78 340.03 116.77 381.34 116.65"/>
</svg>