<?xml version="1.0" encoding="UTF-8"?>
<svg id="_Слой_1" data-name="Слой 1" xmlns="http://www.w3.org/2000/svg" viewBox="0 0 153.48 155.06">
  <defs>
    <style>
      .cls-1 {
        fill: none;
        stroke: #9498a3;
        stroke-miterlimit: 10;
        stroke-width: 3px;
      }

      .cls-2 {
        fill: #1b1b1d;
      }
    </style>
  </defs>
  <ellipse class="cls-2" cx="76.74" cy="77.53" rx="76.74" ry="77.53"/>
  <g>
    <polyline class="cls-1" points="27.37 67.45 25.24 50.15 142.22 50.15 141.7 81.94 146.7 91.38 140.31 98.05 134.48 90.55"/>
    <rect class="cls-1" x="11.75" y="67.5" width="47.48" height="17.22"/>
    <polygon class="cls-1" points="92.55 61.67 122.23 61.67 130.32 107.49 125.32 107.49 114.49 91.94 92.55 90.97 92.55 61.67"/>
    <circle class="cls-1" cx="37.3" cy="107.21" r="9.44"/>
    <circle class="cls-1" cx="61.73" cy="107.21" r="9.44"/>
    <circle class="cls-1" cx="103.66" cy="107.49" r="9.44"/>
    <line class="cls-1" x1="25.24" y1="91.3" x2="85.42" y2="91.3"/>
  </g>
  <ellipse class="cls-2" cx="76.74" cy="77.53" rx="76.74" ry="77.53"/>
  <g>
    <polyline class="cls-1" points="128.3 50 100.7 50 83.17 85.02 24.76 62.5 88.4 59.84"/>
    <ellipse class="cls-1" cx="43.97" cy="101.15" rx="15.3" ry="16.16"/>
    <ellipse class="cls-1" cx="100.37" cy="102.84" rx="15.3" ry="16.16"/>
    <polygon class="cls-1" points="107.82 57.31 125.15 57.31 134.12 101.15 126.31 102.98 115.37 80.14 94.58 80.14 107.82 57.31"/>
  </g>
</svg>